<svg version="1.2" xmlns="http://www.w3.org/2000/svg" viewBox="0 0 1545 1165">
  <path fill="#fff" d="m157 561l79-77 63-177 66-98 90-76 148-69 119-24 146 1 113 28 130 81 89 92 88 155 26 102 95 76 2 214 105 71-28 180-117 68-71 19-1081 3-163-111-35-161 129-97-26-44z"/>
  <path fill="#2b8fe8" d="m101 801l-70 62 20 140 112 96 194 36 960 3 138-90 64-188-92-65-9 205-92 42-1141 17-104-81z"/>
  <path fill="#000" d="m730 6c-69.8 5-144.3 25.4-206 56.6-37.3 18.8-71.1 40.8-105.8 68.7-42.5 34.2-82.5 78.8-118.4 132.1-18.4 27.2-38.8 65.4-53.2 99.6-13.6 32-28.4 80.3-35.4 115.5l-1.8 9-13 10c-7.2 5.5-20.9 16.3-30.5 24-9.6 7.8-21.4 17.2-26.4 21-4.9 3.8-9.3 7.1-9.8 7.5-0.4 0.3-1.8 8-3.2 17.1-1.3 9-4.7 31.9-7.5 50.9-6.2 41.7-12.1 82.7-15.1 105l-2.2 16.5 9.3 8.7c5.3 5 9 9.2 8.4 9.6-7.7 6.6-14.4 12-21.4 17.2-4.7 3.6-16.1 12.7-25.5 20.3-9.3 7.6-21 17.1-25.9 21-4.9 4-15.2 12.5-22.9 19-7.7 6.5-15.2 12.8-16.8 14-1.6 1.1-2.9 3-2.9 4.1 0 1.2 1.4 10.4 3 20.6 1.7 10.2 4.6 28.8 6.6 41.5 5 32.3 17.2 92.1 24.8 121.9 9.8 37.8 7.3 32.9 20.1 39.8 52.5 28.3 109.1 55.7 165 79.8 13.8 5.9 1091.2 2.9 1097.5 0.2 57.4-24.7 134.8-61.6 155.4-74 3.3-2.1 8.3-4.8 10.9-6.2 9.3-4.9 9.7-5.4 12.8-19.1 3.9-16.7 9.7-44.8 16-76.9 6-31 5.7-29 10.8-58.5 2.2-12.7 5.5-31.6 7.4-42 1.9-10.5 3.8-21.3 4.2-24l0.6-5-17.8-15.2c-9.8-8.3-32.2-27.2-49.9-42-17.6-14.7-33.9-28.4-36.2-30.3l-4.2-3.5-1-9.5c-0.5-5.2-1.4-26.8-2-48-0.5-21.2-1.2-44.6-1.5-52-0.3-7.4-0.7-26.3-1-42-0.3-15.7-0.8-34.4-1.1-41.6l-0.6-13.2-17.1-12.8c-9.5-7.1-25-19-34.7-26.5-9.6-7.4-23.1-17.8-30-23.1l-12.5-9.5-1.8-10.9c-8.7-51.6-34.8-122.8-64.1-174.9-2.5-4.4-4.9-8.7-5.3-9.5-2.5-5.1-27-42.5-34.7-53-16.7-22.5-38.8-47.9-60.3-69-22.9-22.7-29-28.1-46.8-41.9-54.4-42.3-103.3-68.7-167.3-90.5-33.6-11.4-72.7-20-114.7-25.2-15-1.8-85.2-2.8-104.5-1.4zm-101.7 76.4c-11.6 14.9-18 23.8-24.4 34l-7.6 12.1-27 13.5c-43.6 21.8-78 46-110.2 77.5l-17.7 17.3-12.4 2.6c-17.5 3.7-33.1 7.9-46 12.5-6 2.2-11 3.7-11 3.4 0-1.2 15.5-19.7 26.3-31.5 49.7-53.8 109.8-96.2 177.7-125.2 10.9-4.7 50-18.4 52.8-18.5 1-0.1 0.8 0.6-0.5 2.3zm311.8 5.7c20.9 6.9 34.8 12.8 59.9 25.4 57.7 29.1 107.2 66.9 150 114.6 10.6 11.7 22.6 26.9 21.3 26.9-0.4 0-5.3-1.6-10.8-3.6-14.4-5.1-28.1-8.9-43-11.9l-13-2.6-14-13.8c-7.7-7.5-16.8-16.3-20.3-19.4-14.4-13-50-38.1-70.9-50-9.2-5.3-34.6-17.9-43.8-21.8-5.6-2.4-6.4-3.1-10.4-10-7-11.8-19.8-30.4-24.9-36l-4.6-5.1 3.4 0.7c1.9 0.4 11.4 3.4 21.1 6.6zm13.9 67.4c24.8 10.9 62.2 34.1 87 54 13.2 10.5 43.8 39.8 47 45 2.3 3.8 6.4 28.1 8.5 50.4 1.7 18.5 1.9 47.5 0.5 62.6-1.5 15.7-3.1 28.1-3.9 29.3-0.4 0.6-8.1 3.2-17.1 5.7-25.8 7.2-51.8 14.9-72.5 21.5-10.4 3.3-27 8.5-36.7 11.6l-17.7 5.6-18.8-15.5c-25.1-20.6-34.4-27.8-57.9-44.8-24.5-17.6-35.7-24.9-64.1-41.8l-22.3-13.2v-68.5-68.5l4.3-1.8c8.8-3.8 41.7-15.1 55.5-19.1 29.3-8.4 65.2-16.4 87.2-19.3 3-0.3 9.5 1.8 21 6.8zm-325.5-4.5c21.8 3.6 45.5 9.2 72 17.2 19.8 6 53.5 17.9 57.1 20.2l2.4 1.6v67.9 67.9l-13.2 7.8c-48.2 28.2-84.1 53.5-127.6 89.6-11.8 9.8-22 17.8-22.7 17.8-0.7 0-11.3-3.2-23.6-7.2-48.4-15.4-57.5-18.2-87.3-26.8-17-4.9-31.3-9.3-31.7-9.7-1.3-1.3-3.7-21.5-4.9-41.9-1.5-25 1.2-69.3 5.5-92.2 1.7-8.9 3-10.6 20.2-27.2 22.6-21.8 49.5-42.6 75.8-58.5 11.1-6.7 38.9-21 48.8-25.1 9.7-4 12.8-4.1 29.2-1.4zm496.1 291.4c10.5 10.5 22.8 23.5 27.3 28.8l8.2 9.8h-40.5-40.5l-21.1 17.7c-11.7 9.8-22.2 18.5-23.4 19.3-1.1 0.8-2.5 2-2.9 2.7-0.4 0.7-1.3 1.3-1.9 1.3-0.6 0-2.3 1.3-3.7 2.9-2.9 3.2-25.5 23.1-31.3 27.4-3.5 2.7-3.7 3.2-4.2 10-0.3 4-1.1 31.3-1.7 60.7-0.6 29.4-1.2 55.1-1.3 57l-0.3 3.5-29.4 0.5c-16.2 0.3-31 0.4-32.9 0.2-3.2-0.4-4.3-1.5-12-12.3-13.9-19.5-17-24.2-17-25.8 0-0.9 2.3-7 5.1-13.6 16.8-39.5 35.7-93.4 49-140 4-13.8 7.6-25.6 8.2-26.3 1.6-2 83-27.9 128.2-40.7 11.6-3.3 15.4-4 17-3.2 1.1 0.5 10.5 9.6 21.1 20.1zm-671.8-18.8c35.1 10 118.6 36.1 132.9 41.6 2.9 1.1 3.3 1.8 5.3 9.7 3.1 12.7 13.6 48.8 18.2 63.1 7.7 23.8 18.1 50.8 37.7 98.3 2.3 5.5 3.8 10.4 3.4 11-0.3 0.7-6.5 9.2-13.6 19l-13 17.7-42.9-0.2-42.8-0.2v-3.1c0-3.1 4.9-47.1 7.5-67.5 0.8-6.3 2.6-21.6 3.9-34l2.5-22.5-5.8-6c-3.1-3.3-8.1-8.7-11.1-12-10.3-11.5-19.5-21.1-37.2-39.3l-17.8-18.2-35.3-0.1c-19.3 0-40.3 0-46.6 0.1-9.4 0.1-11.3-0.1-10.5-1.2 16.6-21.8 52.4-57.8 57.5-57.8 1.2 0 4.6 0.7 7.7 1.6zm-77.3 100.4h82l22.3 24 22.2 23.9-1.5 11.3c-0.8 6.2-4 30.9-7 54.8-10.8 84.8-11.9 92.2-14.1 93.6-6.7 4.5-45 32.7-45.2 33.3-0.2 0.6 20.4 19.1 36.1 32.2l2.8 2.4-2 15c-1.1 8.3-5.4 41.5-9.5 74-8.7 68.7-10 77.3-11.2 78.4-3.3 2.9-60.6 48.2-62.5 49.4-2.1 1.3-17.1 1.5-113.4 2l-111 0.6-24.4-25-24.3-24.9 5.6-35.3c7.2-45.4 12.1-75.4 14.5-89.2 1.1-6.1 3.1-18.7 4.6-28 1.4-9.4 2.9-17.3 3.3-17.6 0.4-0.3 11.4-8.6 24.6-18.5l23.8-17.8-7.3-7.1c-4.1-3.8-12.5-11.8-18.8-17.6l-11.4-10.5 1.2-8.5c1.2-8.4 6.3-42 14.6-96.4 2.4-16 5-32.9 5.6-37.7 1.4-10.3-1-7.7 26.9-29.4 31-24.2 40.3-31.1 42.5-31.8 1.1-0.3 12.6-0.3 25.5-0.1 12.9 0.3 60.4 0.5 105.5 0.5zm962.1 25.1c18.1 13.8 33.5 25.6 34.2 26.3 1.2 1.2 2.1 50.8 5.2 287.6 0.5 42.6 1.2 82.7 1.5 89.1l0.5 11.7-31.9 26.6-31.9 26.6h-114.9-114.8l-19-16.6c-10.4-9.2-24-21.1-30.1-26.5l-11-9.8 0.3-8.3c0.1-4.6 0.8-25 1.3-45.3 1.2-42 3.5-116.6 5-161 1.1-31.4 3.4-109.5 4.6-151.7l0.7-24.7 15.1-12.4c8.3-6.8 21.6-17.9 29.6-24.5l14.5-12.2h104.1 104.1zm-631.6 112.9c49 2 70.1 2.2 101 1.1 17.3-0.6 39.6-1.4 49.5-1.7l18-0.5 7.7 11.4c8.7 13.1 8.8 12.7-3.1 12.7-6 0-203.5-1-203.5-1h-9.9c-7.6 0-9.6-0.3-9.1-1.3 0.5-0.6 4.1-6 8.1-11.9l7.4-10.7 4.7 0.5c2.6 0.2 15.7 0.8 29.2 1.4zm211 67.2c0 3-5.8 77.6-6.6 85l-0.6 5.8h-160.4-160.4v-2.3c0-1.2 2-21.3 4.5-44.7 2.5-23.4 4.5-43.3 4.5-44.3 0-1.6 8.3-1.7 159.5-1.7h159.5zm539.2 119c20.7 14.8 32.5 23.5 33.2 24.6 0.6 0.9 0.4 3-3.4 35.2-1.1 9.6-2.9 25.4-4 35-2 16.7-6.3 41-8 43.9-0.4 0.8-1.2-1.3-1.9-5.5-6.8-38-11.6-63.3-15.7-82.4-4.3-20.2-8.6-38.2-11.9-49.8-1.8-6.1-3.1-11.2-2.9-11.2 0.2 0 6.8 4.6 14.6 10.2zm-1376.1 6.4c-3.8 11.3-13 56.1-16.3 78.6-1.7 12.6-3.5 22.8-3.9 22.8-0.8 0-1-1.8-4.8-32.5-3.8-30.6-5.4-48.1-4.8-49.8 0.7-1.9 30.8-26 31.5-25.3 0.2 0.2-0.6 3-1.7 6.2zm1208.4 220c45.7 0.4 82.3 0.9 81.5 1.1-0.8 0.3-10.9 3.5-22.5 7.3-11.5 3.8-25 8.1-29.9 9.5l-8.8 2.5h-84.8c-46.7 0-85.5 0.3-86.4 0.6-1.4 0.6-738.4 0.3-738.7 0-0.3-0.4-35.3-0.6-77.7-0.6h-77.1l-13.8-3.6c-13.1-3.3-30.3-8.3-47.8-13.8l-8-2.5 61.5-0.3c133-0.7 974.3-0.8 1052.5-0.2z"/>
  <path fill="#000" d="m275.7 616.2c-0.3 1.3-3.1 19.4-6.2 40.3-3.1 20.9-6.2 41.7-6.9 46.2-0.7 4.6-1 8.5-0.8 8.8 0.3 0.3 26.5 0.5 58.3 0.5 54.1 0 57.8-0.1 58.3-1.8 0.5-1.5 2-12.3 10.2-71.7 1.3-9.9 2.7-19.5 3-21.3l0.6-3.2h-58-58z"/>
  <path fill="#000" d="m269.5 805.7l-22.1 0.3-4.3 27.3c-2.4 14.9-5.6 36.4-7.2 47.7-1.5 11.3-3.5 24.5-4.3 29.4-0.9 4.9-1.6 9.7-1.6 10.7 0 1.8 1.4 1.9 32.3 1.8 17.7-0.1 44.6-0.4 59.7-0.8l27.5-0.6 1.2-9c0.7-5 4.2-30.3 7.8-56.3 3.6-26 6.5-48.1 6.5-49.2 0-2-0.7-2-36.7-1.8-20.3 0.2-46.7 0.4-58.8 0.5z"/>
  <path fill="#000" d="m1140.6 633.2c-1.2 40.7-3.6 148.9-4.6 206.8-0.5 33.3-1.2 64.4-1.4 69.2l-0.5 8.8h67.5 67.4v-152-152h-63.9-63.9z"/>
</svg>
